<svg xmlns="http://www.w3.org/2000/svg" aria-hidden="true" style="position:absolute;width:0;height:0;overflow:hidden"><defs><symbol id="icon-close" viewBox="0 0 32 32"><path fill="none" stroke="none" stroke-linecap="round" stroke-linejoin="round" stroke-width="2" d="M24 8 8 24M8 8l16 16"/></symbol><symbol id="icon-menu" viewBox="0 0 32 32"><path fill="none" d="M5 8.667a.997.997 0 0 1 1-1h20a.997.997 0 0 1 1 1 .997.997 0 0 1-1 1H6a.997.997 0 0 1-1-1M5 16a.997.997 0 0 1 1-1h20a.997.997 0 0 1 1 1 .997.997 0 0 1-1 1H6a.997.997 0 0 1-1-1m0 7.333a.997.997 0 0 1 1-1h20a.997.997 0 0 1 1 1 .997.997 0 0 1-1 1H6a.997.997 0 0 1-1-1"/></symbol></defs></svg>